<?xml version="1.0" encoding="utf-8"?>
<!-- Generator: Adobe Illustrator 26.0.1, SVG Export Plug-In . SVG Version: 6.00 Build 0)  -->
<svg version="1.1" id="Layer_1" xmlns="http://www.w3.org/2000/svg" xmlns:xlink="http://www.w3.org/1999/xlink" x="0px" y="0px"
	 viewBox="0 0 512 512" style="enable-background:new 0 0 512 512;" xml:space="preserve">
<style type="text/css">
	.st0{display:none;}
	.st1{display:inline;}
	.st2{fill:#4F2683;}
	.st3{fill:#6300D3;}
</style>
<g id="Layer_1_00000077324288569493823390000001520125046360034694_" class="st0">
	<g id="UV3bOG_00000149347324762583775850000009421515964628263863_" class="st1">
		
			<image style="overflow:visible;enable-background:new    ;" width="2047" height="2732" id="UV3bOG_00000125587908364908295430000014890309446426235280_" xlink:href="352FA78B5DCFA15B.jpeg"  transform="matrix(0.3037 0 0 0.3037 -54.8481 -200)">
		</image>
	</g>
	<g id="Layer_2_00000154398957421394857290000007609289055871336379_" class="st1">
	</g>
</g>
<g id="Layer_19" class="st0">
	<g id="EZRTOm_00000170266270018760950580000004948751683921439875_" class="st1">
		
			<image style="overflow:visible;enable-background:new    ;" width="2051" height="2737" id="EZRTOm_00000106113399047791481760000010063737790043792053_" xlink:href="352FA78B5DCFA159.jpeg"  transform="matrix(0.2855 0 0 0.2855 -15.8932 -185)">
		</image>
	</g>
</g>
<g id="Layer_18" class="st0">
	<rect x="-12" y="-21" class="st1" width="557" height="548"/>
</g>
<g id="Layer_12" class="st0">
	<circle class="st1" cx="264" cy="248" r="200"/>
</g>
<g id="Layer_22">
	<path d="M302,153.9c0,0,19.7,1.6,35.1,19.1h-21.8L302,153.9z"/>
</g>
<g id="Layer_17">
	<path class="st2" d="M285,133L285,133c0,0,46-2,52,23l0,0c0,0-1.4-22-3.7-25l0,0c0,0-51.3-3-22.3-45.5l0,0c0,0-29,17.5-31,24.5
		S276,129,285,133z"/>
	<path class="st3" d="M279,109"/>
</g>
<g id="Layer_16">
	<path class="st2" d="M144,177c0,0,29-73,125-94l0,0c0,0-7,16.8,6,28.4l0,0c0,0-3,8.6,0,16.6l0,0C275,128,189,103,144,177L144,177"
		/>
</g>
<g id="Layer_15">
	<path d="M281,408c0-33-32-69-53-84c-78.9-56.3-55.2-164,48-191c0,0-111-25-140,77c-5,17-15,82,22,100c0,0-16.7-17-8.9-51
		c0,0-10.1,43,61.9,83C268,370,281,408,281,408z"/>
</g>
<g id="Layer_14">
	<path d="M240.9,256c0,0-12.9-33,3.1-49c0,0,10,22.2,31,22.1s26-17.1,67,11.9l-3-14c0,0-27-25-36-25c-13,0-49,33-61.5-46
		C241.5,156,183.9,224,240.9,256z"/>
</g>
<g id="Layer_13">
	<path class="st2" d="M216.2,171.7C186.3,253.3,236,274,289,292.2s50,81.8,50,81.8l0,0c-3-21.4-16-29-16-29l0,0c16,43-42,104-42,104
		s31-70-52-135C147,246,216.2,171.7,216.2,171.7"/>
	<path d="M73,202"/>
</g>
<g id="Layer_20">
	<path d="M338.9,161.8c0,0,35.9,10,47,67.1l0,0c0,0-4.1,7.6,0,15.9l0,0c0,0-37.1,28.8-60-7l0,0c0,0,20.2,16.5,41.1,3.2
		C383,229,351.8,174.5,338.9,161.8"/>
</g>
</svg>
